# xmcd CD database file
#
# Track frame offsets:
#	150
#	19773
#	40146
#	58419
#	81342
#	97290
#	114138
#	135261
#	151734
#	170982
#	189255
#	204678
#	229551
#
# Disc length: 3328 seconds
#
# Revision: 0
# Processed by: cddbd v1.5.2PL0 Copyright (c) Steve Scherf et al.
# Submitted via: CDex 1.70beta2
#
DISCID=a90cfe0d
DTITLE=Hemmylou HARRIS - All I intended to be
DYEAR=2008
DGENRE=Alternative Country
TTITLE0=Emmylou HARRIS - Shores of White Sand
TTITLE1=Emmylou HARRIS - Hold on
TTITLE2=Emmylou HARRIS - Moon song
TTITLE3=Emmylou HARRIS - Broken man's lament
TTITLE4=Emmylou HARRIS - Gold
TTITLE5=Emmylou HARRIS - How she could sing wildwood flower
TTITLE6=Emmylou HARRIS - All that you have is your soul
TTITLE7=Emmylou HARRIS - Take that ride
TTITLE8=Emmylou HARRIS - Old five and dimers like me
TTITLE9=Emmylou HARRIS - Kern river
TTITLE10=Emmylou HARRIS - Not enough
TTITLE11=Emmylou HARRIS - Sailing round the room
TTITLE12=Emmylou HARRIS - Beyond the great divide
EXTD=YEAR: 2008
EXTT0=
EXTT1=
EXTT2=
EXTT3=
EXTT4=
EXTT5=
EXTT6=
EXTT7=
EXTT8=
EXTT9=
EXTT10=
EXTT11=
EXTT12=
PLAYORDER=
